<svg xmlns="http://www.w3.org/2000/svg" width="800" height="500" viewBox="0 0 800 500">
  <defs>
    <linearGradient id="bg" x1="0" y1="0" x2="1" y2="1">
      <stop offset="0%" stop-color="#f8fafc"/>
      <stop offset="100%" stop-color="#e2e8f0"/>
    </linearGradient>
    <linearGradient id="accent" x1="0" y1="0" x2="1" y2="1">
      <stop offset="0%" stop-color="#6366f1"/>
      <stop offset="100%" stop-color="#06b6d4"/>
    </linearGradient>
  </defs>
  <rect width="800" height="500" fill="url(#bg)"/>
  <!-- Decorative circles -->
  <circle cx="650" cy="100" r="120" fill="url(#accent)" opacity="0.06"/>
  <circle cx="150" cy="400" r="80" fill="url(#accent)" opacity="0.04"/>
  <!-- Card mockup -->
  <rect x="200" y="120" width="400" height="260" rx="12" fill="white" stroke="#e2e8f0" stroke-width="1"/>
  <rect x="200" y="120" width="400" height="48" rx="12" fill="#f1f5f9"/>
  <rect x="200" y="156" width="400" height="1" fill="#e2e8f0"/>
  <circle cx="230" cy="144" r="4" fill="#ef4444"/>
  <circle cx="246" cy="144" r="4" fill="#f59e0b"/>
  <circle cx="262" cy="144" r="4" fill="#10b981"/>
  <rect x="300" y="130" width="60" height="6" rx="3" fill="#cbd5e1"/>
  <rect x="370" y="130" width="80" height="6" rx="3" fill="#cbd5e1"/>
  <!-- Table lines -->
  <rect x="240" y="200" width="200" height="6" rx="3" fill="#e2e8f0"/>
  <rect x="240" y="220" width="160" height="6" rx="3" fill="#e2e8f0"/>
  <rect x="240" y="260" width="180" height="6" rx="3" fill="#e2e8f0"/>
  <rect x="240" y="280" width="140" height="6" rx="3" fill="#e2e8f0"/>
  <rect x="240" y="320" width="160" height="6" rx="3" fill="#e2e8f0"/>
  <rect x="240" y="340" width="120" height="6" rx="3" fill="#e2e8f0"/>
  <!-- Title -->
  <text x="400" y="102" text-anchor="middle" font-family="system-ui,sans-serif" font-size="16" font-weight="600" fill="#475569">Manatek — Pharmacy Management</text>
</svg>
